<svg width="64" height="65" viewBox="0 0 64 65" fill="none" xmlns="http://www.w3.org/2000/svg">
<path d="M29.0012 14.5001C32.3149 14.5001 35.0012 11.8138 35.0012 8.50012C35.0012 5.18641 32.3149 2.50012 29.0012 2.50012C25.6875 2.50012 23.0012 5.18641 23.0012 8.50012C23.0012 11.8138 25.6875 14.5001 29.0012 14.5001Z" stroke="#1C232E" stroke-width="4" stroke-linecap="round" stroke-linejoin="round"/>
<path d="M50.0012 26.5001C53.3149 26.5001 56.0012 23.8138 56.0012 20.5001C56.0012 17.1864 53.3149 14.5001 50.0012 14.5001C46.6875 14.5001 44.0012 17.1864 44.0012 20.5001C44.0012 23.8138 46.6875 26.5001 50.0012 26.5001Z" stroke="#1C232E" stroke-width="4" stroke-linecap="round" stroke-linejoin="round"/>
<path d="M56.0012 50.5001C59.3149 50.5001 62.0012 47.8138 62.0012 44.5001C62.0012 41.1864 59.3149 38.5001 56.0012 38.5001C52.6875 38.5001 50.0012 41.1864 50.0012 44.5001C50.0012 47.8138 52.6875 50.5001 56.0012 50.5001Z" stroke="#1C232E" stroke-width="4" stroke-linecap="round" stroke-linejoin="round"/>
<path d="M23.0012 26.5001C24.971 26.5001 26.9216 26.8881 28.7415 27.6419C30.5613 28.3957 32.2149 29.5006 33.6078 30.8935C35.0007 32.2864 36.1056 33.94 36.8594 35.7599C37.6132 37.5798 38.0012 39.5303 38.0012 41.5001V52.0001C38.0004 54.5095 37.1009 56.9356 35.4657 58.839C33.8304 60.7425 31.5676 61.9973 29.087 62.3763C26.6064 62.7553 24.0721 62.2333 21.9431 60.905C19.8141 59.5767 18.2312 57.5298 17.4812 55.1351C16.2012 51.0051 13.5012 48.3001 9.3812 47.0201C6.98775 46.2705 4.9417 44.6888 3.61328 42.5614C2.28487 40.434 1.76185 37.9014 2.13886 35.4218C2.51588 32.9421 3.76802 30.6794 5.66872 29.043C7.56942 27.4065 9.9931 26.5045 12.5012 26.5001H23.0012Z" stroke="#1C232E" stroke-width="4" stroke-linecap="round" stroke-linejoin="round"/>
</svg>
