<svg width="449" height="351" viewBox="0 0 449 351" fill="none" xmlns="http://www.w3.org/2000/svg">
<rect y="0.5" width="449" height="350" rx="20" fill="#FFF8E5"/>
<path d="M261.906 182.059C252.063 166.703 235.298 157.534 217.06 157.534C198.822 157.534 182.058 166.703 172.216 182.059L148.497 219.061C144.562 225.199 142.746 232.292 143.245 239.567C143.744 246.844 146.513 253.62 151.251 259.167C155.993 264.71 162.258 268.498 169.369 270.124C176.48 271.749 183.77 271.055 190.449 268.119L190.897 267.921C207.703 260.681 226.907 260.748 243.67 268.119C247.994 270.02 252.575 270.981 257.198 270.981C259.711 270.981 262.24 270.696 264.745 270.125C271.856 268.501 278.121 264.713 282.865 259.169C287.604 253.626 290.375 246.849 290.875 239.571C291.376 232.292 289.56 225.201 285.625 219.059L261.906 182.059Z" fill="#EDCC79"/>
<path d="M154.887 182.011C161.943 179.301 167.304 173.615 169.981 165.999C172.529 158.753 172.32 150.572 169.391 142.961C166.461 135.356 161.13 129.148 154.381 125.478C147.291 121.624 139.503 120.996 132.458 123.712C118.285 129.161 111.782 146.675 117.962 162.761C122.898 175.565 134.412 183.648 146.053 183.648C149.025 183.648 152.006 183.121 154.887 182.011Z" fill="#EDCC79"/>
<path d="M200.911 153.021C218.628 153.021 233.042 136.599 233.042 116.413C233.042 96.2225 218.628 79.7969 200.911 79.7969C183.195 79.7969 168.782 96.2225 168.782 116.413C168.782 136.599 183.195 153.021 200.911 153.021Z" fill="#EDCC79"/>
<path d="M256.4 162.016H256.402C259.127 162.92 261.908 163.353 264.676 163.353C277.597 163.353 290.189 153.948 294.994 139.495C297.761 131.176 297.579 122.379 294.482 114.727C291.241 106.716 285.234 100.901 277.567 98.3529C269.898 95.8044 261.605 96.8675 254.214 101.344C247.153 105.619 241.742 112.557 238.978 120.877C233.145 138.427 240.961 156.882 256.4 162.016Z" fill="#EDCC79"/>
<path d="M324.067 157.743L324.062 157.738C311.843 148.712 293.57 152.624 283.325 166.463C273.089 180.308 274.69 198.922 286.889 207.954C291.339 211.25 296.596 212.826 301.977 212.826C311.354 212.826 321.111 208.039 327.633 199.237C337.867 185.392 336.268 166.778 324.067 157.743Z" fill="#EDCC79"/>
</svg>
