<svg width="220" height="219" viewBox="0 0 220 219" fill="none" xmlns="http://www.w3.org/2000/svg">
<g clip-path="url(#clip0_1233_976)">
<rect width="220" height="219" rx="20" fill="#6A8293"/>
<path d="M110 50C85.2 50 65 70.2 65 95C65 119.8 85.2 140 110 140C134.8 140 155 119.8 155 95C155 70.2 134.8 50 110 50ZM110 130C91.8 130 77 115.2 77 97C77 78.8 91.8 64 110 64C128.2 64 143 78.8 143 97C143 115.2 128.2 130 110 130Z" fill="#FFF8E5"/>
<path d="M110 70C98.4 70 89 79.4 89 91C89 102.6 98.4 112 110 112C121.6 112 131 102.6 131 91C131 79.4 121.6 70 110 70ZM110 102C103.4 102 98 96.6 98 90C98 83.4 103.4 78 110 78C116.6 78 122 83.4 122 90C122 96.6 116.6 102 110 102Z" fill="#FFF8E5"/>
<path d="M85 150C85 150 95 160 110 160C125 160 135 150 135 150L125 140C125 140 120 145 110 145C100 145 95 140 95 140L85 150Z" fill="#FFF8E5"/>
<path d="M60 180C60 180 70 190 110 190C150 190 160 180 160 180L150 170C150 170 140 175 110 175C80 175 70 170 70 170L60 180Z" fill="#FFF8E5"/>
</g>
<defs>
<clipPath id="clip0_1233_976">
<rect width="220" height="219" fill="white"/>
</clipPath>
</defs>
</svg>
