<svg width="533" height="416" viewBox="0 0 533 416" fill="none" xmlns="http://www.w3.org/2000/svg">
<rect width="533" height="416" rx="20" fill="#FFF8E5"/>
<path d="M318.569 217.122C304.793 195.631 281.33 182.798 255.805 182.798C230.279 182.798 206.817 195.631 193.043 217.122L159.847 268.908C154.339 277.499 151.798 287.426 152.496 297.608C153.194 307.792 157.07 317.275 163.701 325.039C170.337 332.796 179.105 338.098 189.058 340.374C199.011 342.649 209.213 341.677 218.561 337.568L219.187 337.29C242.708 327.158 269.586 327.251 293.046 337.568C299.098 340.229 305.51 341.574 311.98 341.574C315.497 341.574 319.036 341.175 322.542 340.376C332.495 338.103 341.263 332.801 347.902 325.042C354.535 317.284 358.413 307.799 359.113 297.613C359.814 287.426 357.273 277.502 351.765 268.906L318.569 217.122Z" fill="#EDCC79"/>
<path d="M296.583 251.122C296.583 250.095 296.198 249.118 295.479 248.399C294.734 247.679 293.756 247.268 292.728 247.268L268.315 247.294V222.855C268.315 221.853 267.93 220.851 267.211 220.131C266.466 219.412 265.488 219 264.461 219L246.497 219.026C244.365 219.026 242.643 220.748 242.643 222.881V247.268H218.204C217.202 247.268 216.226 247.679 215.48 248.399C214.761 249.118 214.35 250.095 214.35 251.122V269.137C214.35 271.27 216.098 272.992 218.204 272.992H242.643L242.617 297.379C242.617 298.407 243.029 299.384 243.748 300.103C244.468 300.848 245.444 301.233 246.472 301.233H264.461C266.594 301.233 268.315 299.512 268.315 297.379V272.966H292.728C294.862 272.966 296.583 271.244 296.583 269.111V251.122Z" fill="#FFF8E5"/>
<path d="M168.791 217.054C178.667 213.261 186.169 205.303 189.916 194.645C193.482 184.503 193.19 173.053 189.091 162.402C184.989 151.758 177.529 143.069 168.083 137.933C158.161 132.539 147.26 131.661 137.401 135.462C117.565 143.088 108.463 167.599 117.112 190.114C124.021 208.034 140.136 219.346 156.428 219.346C160.588 219.346 164.759 218.608 168.791 217.054Z" fill="#EDCC79"/>
<path d="M233.204 176.482C258.001 176.482 278.175 153.498 278.175 125.247C278.175 96.9886 258.001 74 233.204 74C208.41 74 188.238 96.9886 188.238 125.247C188.238 153.498 208.41 176.482 233.204 176.482Z" fill="#EDCC79"/>
<path d="M310.864 189.07H310.866C314.68 190.336 318.572 190.941 322.447 190.941C340.53 190.941 358.154 177.779 364.878 157.551C368.751 145.908 368.496 133.596 364.161 122.886C359.625 111.675 351.219 103.537 340.488 99.9701C329.755 96.4033 318.149 97.8912 307.804 104.156C297.921 110.14 290.349 119.85 286.481 131.494C278.317 156.056 289.256 181.885 310.864 189.07Z" fill="#EDCC79"/>
<path d="M405.568 183.09L405.561 183.083C388.461 170.451 362.887 175.926 348.547 195.294C334.222 214.672 336.462 240.723 353.537 253.364C359.764 257.977 367.121 260.182 374.652 260.182C387.777 260.182 401.431 253.483 410.56 241.164C424.882 221.787 422.645 195.736 405.568 183.09Z" fill="#EDCC79"/>
</svg>
